<svg width="16" height="16" viewBox="0 0 16 16" fill="none" xmlns="http://www.w3.org/2000/svg">
<path d="M8.66667 4.66668H7.33333V7.33334H4.66667V8.66668H7.33333V11.3333H8.66667V8.66668H11.3333V7.33334H8.66667V4.66668ZM8 1.33334C4.32 1.33334 1.33333 4.32001 1.33333 8.00001C1.33333 11.68 4.32 14.6667 8 14.6667C11.68 14.6667 14.6667 11.68 14.6667 8.00001C14.6667 4.32001 11.68 1.33334 8 1.33334ZM8 13.3333C5.06 13.3333 2.66667 10.94 2.66667 8.00001C2.66667 5.06001 5.06 2.66668 8 2.66668C10.94 2.66668 13.3333 5.06001 13.3333 8.00001C13.3333 10.94 10.94 13.3333 8 13.3333Z" fill="#DADEE6"/>
</svg>
