<svg width="16" height="16" viewBox="0 0 16 16" fill="none" xmlns="http://www.w3.org/2000/svg">
<path d="M8.66668 4.66668H7.33334V7.33334H4.66668V8.66668H7.33334V11.3333H8.66668V8.66668H11.3333V7.33334H8.66668V4.66668ZM8.00001 1.33334C4.32001 1.33334 1.33334 4.32001 1.33334 8.00001C1.33334 11.68 4.32001 14.6667 8.00001 14.6667C11.68 14.6667 14.6667 11.68 14.6667 8.00001C14.6667 4.32001 11.68 1.33334 8.00001 1.33334ZM8.00001 13.3333C5.06001 13.3333 2.66668 10.94 2.66668 8.00001C2.66668 5.06001 5.06001 2.66668 8.00001 2.66668C10.94 2.66668 13.3333 5.06001 13.3333 8.00001C13.3333 10.94 10.94 13.3333 8.00001 13.3333Z" fill="#DADEE6"/>
</svg>
