<svg width="20" height="20" viewBox="0 0 20 20" fill="none" xmlns="http://www.w3.org/2000/svg">
<path d="M16.6667 1.66666H3.33333C2.41666 1.66666 1.675 2.41666 1.675 3.33333L1.66666 18.3333L5 15H16.6667C17.5833 15 18.3333 14.25 18.3333 13.3333V3.33333C18.3333 2.41666 17.5833 1.66666 16.6667 1.66666ZM14.1667 11.6667H5.83333C5.375 11.6667 5 11.2917 5 10.8333C5 10.375 5.375 10 5.83333 10H14.1667C14.625 10 15 10.375 15 10.8333C15 11.2917 14.625 11.6667 14.1667 11.6667ZM14.1667 9.16666H5.83333C5.375 9.16666 5 8.79166 5 8.33333C5 7.875 5.375 7.5 5.83333 7.5H14.1667C14.625 7.5 15 7.875 15 8.33333C15 8.79166 14.625 9.16666 14.1667 9.16666ZM14.1667 6.66666H5.83333C5.375 6.66666 5 6.29166 5 5.83333C5 5.375 5.375 5 5.83333 5H14.1667C14.625 5 15 5.375 15 5.83333C15 6.29166 14.625 6.66666 14.1667 6.66666Z" fill="#DADEE6"/>
</svg>
