<svg width="20" height="20" viewBox="0 0 20 20" fill="none" xmlns="http://www.w3.org/2000/svg">
<path d="M16.175 6.175L12.15 2.15C11.8417 1.84166 11.4167 1.66666 10.975 1.66666H5.00001C4.08334 1.66666 3.34168 2.41666 3.34168 3.33333L3.33334 16.6667C3.33334 17.5833 4.07501 18.3333 4.99168 18.3333H15C15.9167 18.3333 16.6667 17.5833 16.6667 16.6667V7.35833C16.6667 6.91666 16.4917 6.49166 16.175 6.175ZM8.52501 14.4083L6.75834 12.6417C6.43334 12.3167 6.43334 11.7917 6.75834 11.4667C7.08334 11.1417 7.60834 11.1417 7.93334 11.4667L9.10834 12.6417L12.0583 9.69166C12.3833 9.36666 12.9083 9.36666 13.2333 9.69166C13.5583 10.0167 13.5583 10.5417 13.2333 10.8667L9.70001 14.4C9.38334 14.7333 8.85001 14.7333 8.52501 14.4083ZM11.6667 7.5C11.2083 7.5 10.8333 7.125 10.8333 6.66666V2.91666L15.4167 7.5H11.6667Z" fill="#DADEE6"/>
</svg>
