<svg width="20" height="20" viewBox="0 0 20 20" fill="none" xmlns="http://www.w3.org/2000/svg">
<path d="M10.975 1.66666H5C4.08333 1.66666 3.33333 2.41666 3.33333 3.33332V16.6667C3.33333 17.5833 4.08333 18.3333 5 18.3333H15C15.9167 18.3333 16.6667 17.5833 16.6667 16.6667V7.35832C16.6667 6.91666 16.4917 6.49166 16.175 6.18332L12.15 2.15832C11.8417 1.84166 11.4167 1.66666 10.975 1.66666ZM13.3333 12.5C13.3333 14.45 11.6583 16.0083 9.675 15.8167C7.94167 15.65 6.66667 14.1 6.66667 12.3583V8.03332C6.66667 6.94166 7.45 5.94999 8.53333 5.84166C9.78333 5.71666 10.8333 6.69166 10.8333 7.91666V11.6667C10.8333 12.125 10.4583 12.5 10 12.5C9.54167 12.5 9.16667 12.125 9.16667 11.6667V7.91666C9.16667 7.68332 8.98333 7.49999 8.75 7.49999C8.51667 7.49999 8.33333 7.68332 8.33333 7.91666V12.4083C8.33333 13.2417 8.9 14.0083 9.71667 14.1417C10.7667 14.3167 11.6667 13.5083 11.6667 12.5V9.99999C11.6667 9.54166 12.0417 9.16666 12.5 9.16666C12.9583 9.16666 13.3333 9.54166 13.3333 9.99999V12.5ZM11.6667 5.83332V3.33332L15 6.66666H12.5C12.0417 6.66666 11.6667 6.29166 11.6667 5.83332Z" fill="#DADEE6"/>
</svg>
