<svg width="20" height="20" viewBox="0 0 20 20" fill="none" xmlns="http://www.w3.org/2000/svg">
<path d="M10.975 1.66666H4.99998C4.08331 1.66666 3.33331 2.41666 3.33331 3.33332V16.6667C3.33331 17.5833 4.08331 18.3333 4.99998 18.3333H15C15.9166 18.3333 16.6666 17.5833 16.6666 16.6667V7.35832C16.6666 6.91666 16.4916 6.49166 16.175 6.18332L12.15 2.15832C11.8416 1.84166 11.4166 1.66666 10.975 1.66666ZM13.3333 12.5C13.3333 14.45 11.6583 16.0083 9.67498 15.8167C7.94165 15.65 6.66665 14.1 6.66665 12.3583V8.03332C6.66665 6.94166 7.44998 5.94999 8.53331 5.84166C9.78331 5.71666 10.8333 6.69166 10.8333 7.91666V11.6667C10.8333 12.125 10.4583 12.5 9.99998 12.5C9.54165 12.5 9.16665 12.125 9.16665 11.6667V7.91666C9.16665 7.68332 8.98331 7.49999 8.74998 7.49999C8.51665 7.49999 8.33331 7.68332 8.33331 7.91666V12.4083C8.33331 13.2417 8.89998 14.0083 9.71665 14.1417C10.7666 14.3167 11.6666 13.5083 11.6666 12.5V9.99999C11.6666 9.54166 12.0416 9.16666 12.5 9.16666C12.9583 9.16666 13.3333 9.54166 13.3333 9.99999V12.5ZM11.6666 5.83332V3.33332L15 6.66666H12.5C12.0416 6.66666 11.6666 6.29166 11.6666 5.83332Z" fill="#DADEE6"/>
</svg>
