<svg width="20" height="20" viewBox="0 0 20 20" fill="none" xmlns="http://www.w3.org/2000/svg">
<path d="M10.975 1.66667H4.99998C4.08331 1.66667 3.33331 2.41667 3.33331 3.33334V16.6667C3.33331 17.5833 4.08331 18.3333 4.99998 18.3333H15C15.9166 18.3333 16.6666 17.5833 16.6666 16.6667V7.35834C16.6666 6.91667 16.4916 6.49167 16.175 6.18334L12.15 2.15834C11.8416 1.84167 11.4166 1.66667 10.975 1.66667ZM13.3333 12.5C13.3333 14.45 11.6583 16.0083 9.67498 15.8167C7.94165 15.65 6.66665 14.1 6.66665 12.3583V8.03334C6.66665 6.94167 7.44998 5.95001 8.53331 5.84167C9.78331 5.71667 10.8333 6.69167 10.8333 7.91667V11.6667C10.8333 12.125 10.4583 12.5 9.99998 12.5C9.54165 12.5 9.16665 12.125 9.16665 11.6667V7.91667C9.16665 7.68334 8.98331 7.50001 8.74998 7.50001C8.51665 7.50001 8.33331 7.68334 8.33331 7.91667V12.4083C8.33331 13.2417 8.89998 14.0083 9.71665 14.1417C10.7666 14.3167 11.6666 13.5083 11.6666 12.5V10C11.6666 9.54167 12.0416 9.16667 12.5 9.16667C12.9583 9.16667 13.3333 9.54167 13.3333 10V12.5ZM11.6666 5.83334V3.33334L15 6.66667H12.5C12.0416 6.66667 11.6666 6.29167 11.6666 5.83334Z" fill="#DADEE6"/>
</svg>
