<svg width="16" height="16" viewBox="0 0 16 16" fill="none" xmlns="http://www.w3.org/2000/svg">
<path d="M8.66665 4.66666H7.33331V7.33333H4.66665V8.66666H7.33331V11.3333H8.66665V8.66666H11.3333V7.33333H8.66665V4.66666ZM7.99998 1.33333C4.31998 1.33333 1.33331 4.31999 1.33331 8C1.33331 11.68 4.31998 14.6667 7.99998 14.6667C11.68 14.6667 14.6666 11.68 14.6666 8C14.6666 4.31999 11.68 1.33333 7.99998 1.33333ZM7.99998 13.3333C5.05998 13.3333 2.66665 10.94 2.66665 8C2.66665 5.06 5.05998 2.66666 7.99998 2.66666C10.94 2.66666 13.3333 5.06 13.3333 8C13.3333 10.94 10.94 13.3333 7.99998 13.3333Z" fill="#DADEE6"/>
</svg>
