<svg width="20" height="20" viewBox="0 0 20 20" fill="none" xmlns="http://www.w3.org/2000/svg">
<path d="M16.6667 1.66667H3.33332C2.41666 1.66667 1.67499 2.41667 1.67499 3.33334L1.66666 18.3333L4.99999 15H16.6667C17.5833 15 18.3333 14.25 18.3333 13.3333V3.33334C18.3333 2.41667 17.5833 1.66667 16.6667 1.66667ZM14.1667 11.6667H5.83332C5.37499 11.6667 4.99999 11.2917 4.99999 10.8333C4.99999 10.375 5.37499 10 5.83332 10H14.1667C14.625 10 15 10.375 15 10.8333C15 11.2917 14.625 11.6667 14.1667 11.6667ZM14.1667 9.16667H5.83332C5.37499 9.16667 4.99999 8.79167 4.99999 8.33334C4.99999 7.87501 5.37499 7.50001 5.83332 7.50001H14.1667C14.625 7.50001 15 7.87501 15 8.33334C15 8.79167 14.625 9.16667 14.1667 9.16667ZM14.1667 6.66667H5.83332C5.37499 6.66667 4.99999 6.29167 4.99999 5.83334C4.99999 5.37501 5.37499 5.00001 5.83332 5.00001H14.1667C14.625 5.00001 15 5.37501 15 5.83334C15 6.29167 14.625 6.66667 14.1667 6.66667Z" fill="#DADEE6"/>
</svg>
