<svg width="20" height="20" viewBox="0 0 20 20" fill="none" xmlns="http://www.w3.org/2000/svg">
<path d="M16.6667 1.66666H3.33334C2.41667 1.66666 1.67501 2.41666 1.67501 3.33332L1.66667 18.3333L5.00001 15H16.6667C17.5833 15 18.3333 14.25 18.3333 13.3333V3.33332C18.3333 2.41666 17.5833 1.66666 16.6667 1.66666ZM14.1667 11.6667H5.83334C5.37501 11.6667 5.00001 11.2917 5.00001 10.8333C5.00001 10.375 5.37501 9.99999 5.83334 9.99999H14.1667C14.625 9.99999 15 10.375 15 10.8333C15 11.2917 14.625 11.6667 14.1667 11.6667ZM14.1667 9.16666H5.83334C5.37501 9.16666 5.00001 8.79166 5.00001 8.33332C5.00001 7.87499 5.37501 7.49999 5.83334 7.49999H14.1667C14.625 7.49999 15 7.87499 15 8.33332C15 8.79166 14.625 9.16666 14.1667 9.16666ZM14.1667 6.66666H5.83334C5.37501 6.66666 5.00001 6.29166 5.00001 5.83332C5.00001 5.37499 5.37501 4.99999 5.83334 4.99999H14.1667C14.625 4.99999 15 5.37499 15 5.83332C15 6.29166 14.625 6.66666 14.1667 6.66666Z" fill="#DADEE6"/>
</svg>
