<svg width="20" height="20" viewBox="0 0 20 20" fill="none" xmlns="http://www.w3.org/2000/svg">
<path d="M16.175 6.175L12.15 2.15001C11.8416 1.84167 11.4166 1.66667 10.975 1.66667H4.99998C4.08331 1.66667 3.34165 2.41667 3.34165 3.33334L3.33331 16.6667C3.33331 17.5833 4.07498 18.3333 4.99165 18.3333H15C15.9166 18.3333 16.6666 17.5833 16.6666 16.6667V7.35834C16.6666 6.91667 16.4916 6.49167 16.175 6.175ZM8.52498 14.4083L6.75831 12.6417C6.43331 12.3167 6.43331 11.7917 6.75831 11.4667C7.08331 11.1417 7.60831 11.1417 7.93331 11.4667L9.10831 12.6417L12.0583 9.69167C12.3833 9.36667 12.9083 9.36667 13.2333 9.69167C13.5583 10.0167 13.5583 10.5417 13.2333 10.8667L9.69998 14.4C9.38331 14.7333 8.84998 14.7333 8.52498 14.4083ZM11.6666 7.50001C11.2083 7.50001 10.8333 7.12501 10.8333 6.66667V2.91667L15.4166 7.50001H11.6666Z" fill="#DADEE6"/>
</svg>
